<?xml version="1.0" encoding="utf-8"?>
<!-- Generator: Adobe Illustrator 22.1.0, SVG Export Plug-In . SVG Version: 6.00 Build 0)  -->
<svg version="1.1" id="Layer_1" xmlns="http://www.w3.org/2000/svg" xmlns:xlink="http://www.w3.org/1999/xlink" x="0px" y="0px"
	 viewBox="0 0 200 200" style="enable-background:new 0 0 400 400;" xml:space="preserve">
<style type="text/css">
	.st0 {fill:#FFFFFF;}
</style>

<g>
	<g>
		<g>
			<path class="st0" d="M315.4,291.8H164.6c-15.6,0-28.3-12.7-28.3-28.3v-71.6c0-15.6,12.7-28.3,28.3-28.3h150.7
				c15.6,0,28.3,12.7,28.3,28.3v71.6C343.6,279.1,330.9,291.8,315.4,291.8z M164.6,166.3c-14.1,0-25.6,11.5-25.6,25.6v71.6
				c0,14.1,11.5,25.6,25.6,25.6h150.7c14.1,0,25.6-11.5,25.6-25.6v-71.6c0-14.1-11.5-25.6-25.6-25.6H164.6z M315.4,283.9H164.6
				c-11.2,0-20.4-9.1-20.4-20.4v-71.6c0-11.2,9.1-20.4,20.4-20.4h150.7c11.2,0,20.4,9.1,20.4,20.4v71.6
				C335.7,274.8,326.6,283.9,315.4,283.9z M164.6,174.2c-9.8,0-17.7,8-17.7,17.7v71.6c0,9.8,8,17.7,17.7,17.7h150.7
				c9.8,0,17.7-8,17.7-17.7v-71.6c0-9.8-8-17.7-17.7-17.7H164.6z"/>
		</g>
	</g>
	<g>
		<g>
			<path class="st0" d="M263.2,184.4h-7.4l-27.8,28.4l8.9-28.4h-8.7l-17.9,15.2l-2.9,9.2l21.4-18.3l-9.8,31.3L188,253.7
				c-3.6,3.7-3.8,8.6-0.5,12.4c2.6,3.1,6.9,4.8,11.4,4.8c1.2,0,2.3-0.1,3.5-0.3c5-1,8.8-4,10-7.9l9.3-29.7l11,38h6l-13.8-47.5
				L263.2,184.4z M206.7,261.6c-0.7,2.2-2.9,3.9-5.7,4.5c-4,0.8-7.1-0.8-8.6-2.5c-1.5-1.8-2.2-4.6,0.3-7.1l22.9-23.4L206.7,261.6z"
				/>
		</g>
		<g>
			<g>
				<polygon class="st0" points="268.4,271 260.3,262.9 268.4,254.8 				"/>
			</g>
		</g>
		<g>
			<polygon class="st0" points="290.3,240.1 290.3,260.6 263.2,260.6 263.2,265.2 294.9,265.2 294.9,235.4 			"/>
		</g>
	</g>
	<g>
		<path class="st0" d="M149.8,310.2c0,3.6-2.7,6.1-6.4,6.1h-5v-12.2h5.1C147.2,304.1,149.8,306.6,149.8,310.2z M147.5,310.2
			c0-2.4-1.7-4.1-4-4.1h-2.7v8.1h2.8C145.8,314.2,147.5,312.6,147.5,310.2z"/>
		<path class="st0" d="M166.1,304.1v2h-6.6v3h5.9v2h-5.9v3.1h6.8v2h-9.1v-12.2H166.1z"/>
		<path class="st0" d="M174.9,304.1l3.6,9.6l3.6-9.6h2.4l-4.9,12.2h-2.4l-4.8-12.2H174.9z"/>
		<path class="st0" d="M200.3,304.1v2h-6.6v3h5.9v2h-5.9v3.1h6.8v2h-9.1v-12.2H200.3z"/>
		<path class="st0" d="M210.5,304.1v10.1h5.3v2.1h-7.6v-12.2H210.5z"/>
		<path class="st0" d="M234.8,310.2c0,3.5-2.8,6.2-6.5,6.2c-3.7,0-6.5-2.7-6.5-6.2c0-3.5,2.8-6.2,6.5-6.2
			C232,304,234.8,306.7,234.8,310.2z M224.2,310.2c0,2.3,1.9,4.1,4.1,4.1c2.2,0,4.1-1.8,4.1-4.1c0-2.3-1.8-4.1-4.1-4.1
			C226.1,306.1,224.2,307.9,224.2,310.2z"/>
		<path class="st0" d="M252,308.3c0,2.8-1.8,4.4-4.8,4.4h-2.7v3.6h-2.3v-12.2h5C250.2,304.1,252,305.6,252,308.3z M249.8,308.3
			c0-1.5-1-2.2-2.7-2.2h-2.5v4.5h2.5C248.8,310.6,249.8,309.9,249.8,308.3z"/>
		<path class="st0" d="M268.1,304.1v2h-6.6v3h5.9v2h-5.9v3.1h6.8v2h-9.1v-12.2H268.1z"/>
		<path class="st0" d="M278.6,304.1l3.8,7.8l3.8-7.8h2.7v12.2h-2.1l0-8.7l-3.6,7.4h-1.5l-3.6-7.4v8.7h-2.2v-12.2H278.6z"/>
		<path class="st0" d="M306.1,304.1v2h-6.6v3h5.9v2h-5.9v3.1h6.8v2h-9.1v-12.2H306.1z"/>
		<path class="st0" d="M316.2,304.1l6.3,8.3v-8.3h2.3v12.2h-2.2l-6.3-8.3v8.3H314v-12.2H316.2z"/>
		<path class="st0" d="M341.6,304.1v2.1h-3.8v10.1h-2.4v-10.1h-3.8v-2.1H341.6z"/>
	</g>
</g>
</svg>
