<svg id="Layer_1" data-name="Layer 1" xmlns="http://www.w3.org/2000/svg" viewBox="0 0 207.27 152.73"><defs><style>.cls-1{fill:#fff;}</style></defs><title>SVG</title><path class="cls-1" d="M315.35,291.82H164.65a28.31,28.31,0,0,1-28.28-28.28V191.91a28.31,28.31,0,0,1,28.28-28.28h150.7a28.31,28.31,0,0,1,28.28,28.28v71.63A28.31,28.31,0,0,1,315.35,291.82ZM164.65,166.27A25.67,25.67,0,0,0,139,191.91v71.63a25.67,25.67,0,0,0,25.64,25.64h150.7A25.67,25.67,0,0,0,341,263.54V191.91a25.67,25.67,0,0,0-25.64-25.64Zm150.7,117.64H164.65a20.4,20.4,0,0,1-20.37-20.37V191.91a20.39,20.39,0,0,1,20.37-20.36h150.7a20.39,20.39,0,0,1,20.37,20.36v71.63A20.4,20.4,0,0,1,315.35,283.91ZM164.65,174.19a17.74,17.74,0,0,0-17.73,17.72v71.63a17.75,17.75,0,0,0,17.73,17.73h150.7a17.75,17.75,0,0,0,17.73-17.73V191.91a17.74,17.74,0,0,0-17.73-17.72Z" transform="translate(-136.37 -163.63)"/><path class="cls-1" d="M263.15,184.43h-7.39l-27.83,28.43,8.86-28.43h-8.65l-17.91,15.24-2.87,9.23,21.44-18.25L219.05,222,188,253.7c-3.6,3.68-3.8,8.55-.5,12.4a15,15,0,0,0,11.41,4.79,17.68,17.68,0,0,0,3.53-.35c5-1,8.79-4,10-7.86L221.66,233l11,38h6l-13.78-47.55Zm-56.46,77.18c-.69,2.22-2.89,3.94-5.73,4.51a8.85,8.85,0,0,1-8.58-2.55,5,5,0,0,1,.29-7.11L215.59,233Z" transform="translate(-136.37 -163.63)"/><polygon class="cls-1" points="132.05 107.39 123.92 99.26 132.05 91.13 132.05 107.39"/><polygon class="cls-1" points="153.96 76.44 153.96 97 126.78 97 126.78 101.53 158.5 101.53 158.5 71.8 153.96 76.44"/><path class="cls-1" d="M149.84,310.17c0,3.55-2.68,6.09-6.44,6.09h-5V304.08h5.06A6,6,0,0,1,149.84,310.17Zm-2.38,0a3.9,3.9,0,0,0-4-4.06h-2.69v8.08h2.78A3.84,3.84,0,0,0,147.46,310.19Z" transform="translate(-136.37 -163.63)"/><path class="cls-1" d="M166.07,304.08v2h-6.6v3h5.92v2h-5.92v3.06h6.81v2h-9.14V304.08Z" transform="translate(-136.37 -163.63)"/><path class="cls-1" d="M175,304.08l3.59,9.59,3.62-9.59h2.4l-4.87,12.18h-2.43l-4.82-12.18Z" transform="translate(-136.37 -163.63)"/><path class="cls-1" d="M200.3,304.08v2h-6.6v3h5.92v2H193.7v3.06h6.8v2h-9.13V304.08Z" transform="translate(-136.37 -163.63)"/><path class="cls-1" d="M210.46,304.08v10.08h5.26v2.1h-7.59V304.08Z" transform="translate(-136.37 -163.63)"/><path class="cls-1" d="M234.83,310.17a6.5,6.5,0,1,1-6.49-6.16A6.25,6.25,0,0,1,234.83,310.17Zm-10.6,0a4.14,4.14,0,0,0,4.14,4.11,4.09,4.09,0,1,0-4.14-4.11Z" transform="translate(-136.37 -163.63)"/><path class="cls-1" d="M252,308.27c0,2.79-1.75,4.41-4.82,4.41h-2.66v3.58h-2.33V304.08h5C250.21,304.08,252,305.59,252,308.27Zm-2.21.07c0-1.49-1-2.23-2.73-2.23h-2.54v4.51H247C248.76,310.62,249.75,309.87,249.75,308.34Z" transform="translate(-136.37 -163.63)"/><path class="cls-1" d="M268.08,304.08v2h-6.59v3h5.92v2h-5.92v3.06h6.8v2h-9.13V304.08Z" transform="translate(-136.37 -163.63)"/><path class="cls-1" d="M278.62,304.08l3.82,7.81,3.82-7.81h2.68v12.18h-2.13v-8.7L283.19,315h-1.51l-3.6-7.45v8.7h-2.16V304.08Z" transform="translate(-136.37 -163.63)"/><path class="cls-1" d="M306.15,304.08v2h-6.6v3h5.92v2h-5.92v3.06h6.8v2h-9.13V304.08Z" transform="translate(-136.37 -163.63)"/><path class="cls-1" d="M316.19,304.08l6.28,8.34v-8.34h2.27v12.18h-2.21l-6.27-8.32v8.32H314V304.08Z" transform="translate(-136.37 -163.63)"/><path class="cls-1" d="M341.57,304.08v2.07h-3.79v10.11h-2.35V306.15h-3.79v-2.07Z" transform="translate(-136.37 -163.63)"/></svg>